<?xml version="1.0" encoding="utf-8"?>
<!-- Generator: Adobe Illustrator 16.0.0, SVG Export Plug-In . SVG Version: 6.00 Build 0)  -->
<!DOCTYPE svg PUBLIC "-//W3C//DTD SVG 1.1//EN" "http://www.w3.org/Graphics/SVG/1.1/DTD/svg11.dtd">
<svg version="1.1" id="Livello_1" xmlns="http://www.w3.org/2000/svg" xmlns:xlink="http://www.w3.org/1999/xlink" x="0px" y="0px"
	 width="480px" height="640px" viewBox="0 0 480 640" enable-background="new 0 0 480 640" xml:space="preserve">
<circle fill="#197BCC" cx="210.5" cy="203.25" r="27.25"/>
<path fill="#1A4A96" d="M652.037,575.854c-0.017,0-0.034,0.001-0.052,0.001c0.002,0,0.003,0,0.005,0
	C652.006,575.855,652.021,575.854,652.037,575.854z"/>
<path fill="#1A4A96" d="M623.953,584.137C623.708,584.453,623.852,584.273,623.953,584.137L623.953,584.137z"/>
<path fill="#1A4A96" d="M652.134,576h-0.247C651.963,576,652.134,576,652.134,576z"/>
<path fill="#1A4A96" d="M618.065,591.896c0,0-0.105-0.011-0.14-0.013L618.065,591.896z"/>
<path fill="#025289" d="M213.311,191.816l-1.797-0.065c0,0,1.197-0.033,1.756,0.059c0.036,0.004,0.077,0.008,0.122,0.012
	c0.995,0.166,1.967,0.429,2.909,0.792c0.896,0.412,1.746,0.91,2.544,1.49c0.336,0.278,0.661,0.567,0.972,0.872
	c0.574,0.558,1.318,0.853,2.071,0.878c-0.94-0.025-1.823-0.396-2.496-1.05c-0.294-0.287-0.604-0.565-0.921-0.827
	c-0.755-0.547-1.565-1.021-2.407-1.409C215.178,192.227,214.252,191.974,213.311,191.816z"/>
<path fill="#1A4A96" d="M212.015,220.519c-0.433-0.001-0.831-0.014-0.857-0.015l1.586-0.004c-0.185,0.012-0.414,0.018-0.641,0.019
	c-0.02,0-0.041,0-0.062,0C212.033,220.519,212.023,220.519,212.015,220.519z"/>
<path fill="#4C7DCC" d="M211.946,220.52c0.023,0,0.046-0.001,0.069-0.001c0.009,0,0.018,0,0.027,0
	C212.011,220.52,211.978,220.52,211.946,220.52z"/>
<path fill="#0066CC" d="M188.063,205.433c-1.778,0.009-3.224,1.456-3.224,3.227c0,1.706,1.401,3.153,3.086,3.225l0.139,0.011h0.004
	c0.171-0.006,0.341-0.014,0.509-0.025c2.534-0.154,4.879-0.764,6.85-1.983c0.247,0.561,0.521,1.103,0.82,1.624
	c1.106,1.931,2.587,3.652,4.285,4.978c1.76,1.374,3.519,2.35,5.535,3.071c1.446,0.519,3.082,0.834,4.779,0.93
	c0.103,0.006,0.206,0.011,0.31,0.015c0,0,0,0,0.001,0c0.026,0.001,0.424,0.014,0.857,0.015c-0.022,0-0.045,0.001-0.069,0.001
	c0.032,0,0.065,0,0.096-0.001c0.021,0,0.042,0,0.062,0c0.227-0.001,0.456-0.007,0.641-0.019c0.067-0.003,0.136-0.007,0.204-0.011
	c4.289-0.251,8.478-2.109,11.627-5.184c0.682-0.668,1.061-1.576,1.066-2.561c0.007-0.988-0.381-1.944-1.061-2.626
	c-0.683-0.683-1.599-1.059-2.576-1.059c-0.98,0-1.902,0.374-2.599,1.054c-0.3,0.293-0.616,0.578-0.942,0.846
	c-0.755,0.547-1.565,1.021-2.409,1.411c-0.879,0.337-1.793,0.588-2.718,0.745c-0.488,0.049-0.983,0.075-1.469,0.075
	c-0.48,0-0.964-0.024-1.44-0.073c-0.934-0.158-1.855-0.41-2.742-0.751c-0.827-0.383-1.625-0.849-2.369-1.387
	c-0.709-0.585-1.365-1.241-1.949-1.949c-0.539-0.744-1.005-1.542-1.388-2.371c-0.341-0.885-0.595-1.807-0.751-2.74
	c-0.098-0.963-0.098-1.938,0-2.9c0.156-0.932,0.409-1.853,0.75-2.737c0.382-0.828,0.85-1.626,1.388-2.371
	c0.584-0.709,1.24-1.366,1.95-1.95c0.744-0.54,1.543-1.007,2.372-1.39c0.885-0.341,1.807-0.594,2.738-0.751
	c0.09-0.009,0.18-0.017,0.271-0.025c0.09-0.007,0.181-0.013,0.271-0.019c0.086-0.005,0.172-0.01,0.258-0.014
	c0.095-0.004,0.191-0.008,0.287-0.01l1.797,0.065c0.942,0.158,1.867,0.411,2.752,0.751c0.842,0.388,1.652,0.862,2.407,1.409
	c0.317,0.262,0.627,0.54,0.921,0.827c0.673,0.654,1.556,1.025,2.496,1.05l0.246-0.001c0.923-0.034,1.781-0.406,2.432-1.056
	c0.682-0.682,1.069-1.64,1.063-2.63c-0.007-0.984-0.386-1.891-1.069-2.555c-3.392-3.304-7.975-5.199-12.577-5.199
	c-0.709,0-1.418,0.047-2.114,0.137c-2.641,0.342-4.94,1.091-7.029,2.289c-1.931,1.106-3.653,2.588-4.979,4.286
	c-1.613,2.064-2.715,4.178-3.368,6.463c-0.461,1.62-0.692,3.359-0.665,5.044c-0.049,0.077-0.096,0.149-0.144,0.217
	c-0.04,0.06-0.082,0.119-0.124,0.177l-0.009,0.013c-0.306,0.366-0.657,0.719-1.043,1.047c-0.062,0.045-0.125,0.093-0.172,0.124
	c-0.116,0.081-0.247,0.164-0.421,0.271c-0.227,0.136-0.47,0.265-0.74,0.392c-0.579,0.217-1.198,0.383-1.845,0.494
	C188.912,205.408,188.486,205.431,188.063,205.433z"/>
<path fill="#1A4A96" d="M210.969,191.775c-0.09,0.006-0.181,0.012-0.271,0.019C210.788,191.786,210.878,191.78,210.969,191.775z"/>
<path fill="#025289" d="M200.624,201.547c0.165-0.989,0.431-1.956,0.793-2.891c0.406-0.884,0.896-1.722,1.467-2.507
	c0.618-0.754,1.306-1.442,2.06-2.06c0.787-0.572,1.625-1.063,2.508-1.469c0.937-0.363,1.903-0.629,2.894-0.795
	c0.117-0.012,0.234-0.022,0.353-0.03c-0.091,0.008-0.181,0.016-0.271,0.025c-0.931,0.157-1.853,0.41-2.738,0.751
	c-0.829,0.383-1.628,0.851-2.372,1.39c-0.71,0.584-1.366,1.241-1.95,1.95c-0.539,0.745-1.006,1.543-1.388,2.371
	c-0.341,0.884-0.594,1.805-0.75,2.737c-0.098,0.962-0.098,1.937,0,2.9c0.156,0.933,0.41,1.854,0.751,2.74
	c0.383,0.829,0.85,1.627,1.388,2.371c0.584,0.708,1.24,1.364,1.949,1.949c0.744,0.539,1.542,1.004,2.369,1.387
	c0.886,0.341,1.808,0.594,2.742,0.751c0.476,0.048,0.96,0.073,1.44,0.073c0.486,0,0.981-0.025,1.469-0.075
	c0.924-0.157,1.839-0.407,2.718-0.745c0.844-0.39,1.654-0.864,2.409-1.411c0.326-0.268,0.642-0.553,0.942-0.846
	c0.696-0.68,1.619-1.054,2.599-1.054c0.978,0,1.893,0.376,2.576,1.059c0.68,0.682,1.068,1.638,1.061,2.626
	c-0.005,0.985-0.384,1.893-1.066,2.561c-3.149,3.074-7.338,4.932-11.627,5.184c4.187-0.252,8.199-2.08,11.2-5.011
	c1.191-1.163,1.166-3.151,0-4.317c-1.186-1.186-3.128-1.162-4.316,0c-0.319,0.313-0.65,0.608-0.995,0.892
	c-0.798,0.58-1.648,1.078-2.545,1.49c-0.93,0.36-1.89,0.623-2.873,0.787c-1.022,0.105-2.05,0.107-3.072,0.002
	c-0.991-0.164-1.96-0.429-2.897-0.794c-0.882-0.405-1.72-0.895-2.505-1.467c-0.754-0.619-1.441-1.307-2.059-2.058
	c-0.57-0.787-1.061-1.624-1.467-2.506c-0.363-0.938-0.628-1.905-0.794-2.896C200.519,203.591,200.519,202.566,200.624,201.547z"/>
<path fill="#025289" d="M200.533,216.488c-1.697-1.326-3.178-3.047-4.285-4.978c-0.299-0.521-0.574-1.063-0.82-1.624
	c-1.971,1.22-4.316,1.83-6.85,1.983c2.553-0.161,5.063-0.829,7.129-2.289c0.298,0.763,0.653,1.505,1.07,2.234
	c1.047,1.827,2.472,3.504,4.132,4.801c1.656,1.294,3.377,2.267,5.365,2.978c1.454,0.52,3.021,0.804,4.572,0.895
	c-1.697-0.095-3.333-0.411-4.779-0.93C204.052,218.838,202.292,217.862,200.533,216.488z"/>
<path fill="#005BA5" d="M195.081,198.366c0.661-2.315,1.785-4.365,3.259-6.253c1.299-1.66,2.977-3.084,4.804-4.133
	c2.125-1.218,4.391-1.9,6.804-2.213c5.167-0.672,10.48,1.284,14.186,4.893c1.192,1.161,1.165,3.152,0,4.317
	c-0.554,0.554-1.272,0.844-2,0.877l-0.246,0.001c-0.753-0.025-1.498-0.32-2.071-0.878c-0.311-0.305-0.635-0.594-0.972-0.872
	c-0.798-0.58-1.648-1.078-2.544-1.49c-0.942-0.363-1.914-0.626-2.909-0.792c-0.045-0.004-0.086-0.008-0.122-0.012
	c-0.559-0.092-1.756-0.059-1.756-0.059c-0.096,0.002-0.192,0.006-0.287,0.01c-0.086,0.004-0.172,0.009-0.258,0.014
	c-0.091,0.005-0.181,0.011-0.271,0.019c-0.118,0.008-0.235,0.018-0.353,0.03c-0.99,0.166-1.957,0.432-2.894,0.795
	c-0.883,0.406-1.722,0.897-2.508,1.469c-0.754,0.618-1.442,1.306-2.06,2.06c-0.571,0.786-1.061,1.623-1.467,2.507
	c-0.363,0.936-0.628,1.902-0.793,2.891c-0.105,1.02-0.105,2.044,0,3.063c0.166,0.991,0.432,1.959,0.794,2.896
	c0.406,0.883,0.897,1.719,1.467,2.506c0.618,0.751,1.305,1.439,2.059,2.058c0.786,0.572,1.624,1.062,2.505,1.467
	c0.938,0.365,1.906,0.63,2.897,0.794c1.022,0.105,2.05,0.103,3.072-0.002c0.983-0.165,1.943-0.427,2.873-0.787
	c0.897-0.412,1.747-0.91,2.545-1.49c0.345-0.284,0.676-0.58,0.995-0.892c1.188-1.162,3.13-1.186,4.316,0
	c1.166,1.166,1.191,3.154,0,4.317c-3,2.931-7.013,4.759-11.2,5.011c-0.068,0.004-0.137,0.008-0.204,0.011l-1.586,0.004
	c-0.001,0-0.001,0-0.001,0c-0.104-0.004-0.207-0.009-0.31-0.015c-1.552-0.091-3.119-0.375-4.572-0.895
	c-1.987-0.71-3.709-1.683-5.365-2.978c-1.66-1.297-3.084-2.974-4.132-4.801c-0.417-0.729-0.772-1.472-1.07-2.234
	c-2.066,1.46-4.576,2.128-7.129,2.289c-0.168,0.011-0.338,0.019-0.509,0.025h-0.004l-0.139-0.011
	c-1.363-0.071-2.477-1.24-2.477-2.615c0-1.432,1.19-2.608,2.616-2.616c0.451-0.003,0.899-0.026,1.345-0.069
	c0.684-0.117,1.353-0.292,2-0.538c0.281-0.131,0.555-0.274,0.819-0.434c0.153-0.093,0.306-0.188,0.454-0.289
	c0.053-0.038,0.132-0.096,0.204-0.151c0.414-0.35,0.8-0.732,1.146-1.15c0.055-0.074,0.108-0.146,0.159-0.222
	c0.087-0.128,0.169-0.258,0.25-0.39C194.396,201.711,194.618,199.984,195.081,198.366z"/>
<path fill="#025289" d="M184.839,208.66c0-1.771,1.446-3.218,3.224-3.227c0.423-0.002,0.849-0.024,1.266-0.065
	c0.646-0.111,1.266-0.277,1.845-0.494c0.271-0.127,0.513-0.256,0.74-0.392c0.175-0.107,0.305-0.19,0.421-0.271
	c0.046-0.031,0.11-0.079,0.172-0.124c0.387-0.328,0.737-0.681,1.043-1.047l0.009-0.013c0.042-0.059,0.084-0.117,0.124-0.177
	c0.047-0.067,0.094-0.14,0.144-0.217c-0.027-1.686,0.203-3.425,0.665-5.044c0.653-2.285,1.755-4.399,3.368-6.463
	c1.326-1.697,3.049-3.179,4.979-4.286c2.089-1.198,4.389-1.947,7.029-2.289c0.695-0.09,1.404-0.137,2.114-0.137
	c4.602,0,9.185,1.895,12.577,5.199c0.683,0.664,1.062,1.571,1.069,2.555c0.006,0.99-0.381,1.948-1.063,2.63
	c-0.651,0.65-1.509,1.021-2.432,1.056c0.729-0.033,1.447-0.323,2-0.877c1.165-1.165,1.192-3.156,0-4.317
	c-3.706-3.608-9.019-5.564-14.186-4.893c-2.414,0.313-4.68,0.995-6.804,2.213c-1.828,1.049-3.505,2.473-4.804,4.133
	c-1.474,1.888-2.598,3.938-3.259,6.253c-0.463,1.619-0.684,3.345-0.64,5.045c-0.08,0.132-0.163,0.262-0.25,0.39
	c-0.051,0.076-0.104,0.148-0.159,0.222c-0.346,0.418-0.731,0.801-1.146,1.15c-0.072,0.055-0.151,0.113-0.204,0.151
	c-0.147,0.101-0.3,0.196-0.454,0.289c-0.265,0.16-0.539,0.302-0.819,0.434c-0.647,0.246-1.316,0.42-2,0.538
	c-0.445,0.043-0.894,0.066-1.345,0.069c-1.425,0.007-2.616,1.184-2.616,2.616c0,1.375,1.114,2.544,2.477,2.615
	C186.24,211.813,184.839,210.366,184.839,208.66z"/>
</svg>
